<svg width="125" height="98" viewBox="0 0 125 98" fill="none" xmlns="http://www.w3.org/2000/svg">
<path d="M0 97.7872H3.49818C4.08394 97.7872 6.71133 97.8038 6.71133 95.4261C6.71133 93.1459 4.11895 93.1625 3.49818 93.1625H2.29092V92.0356H6.04555V90.2042H0.00928691L0 97.7872ZM2.28163 96.2759V94.6652H3.26744C3.99537 94.6652 4.41255 94.87 4.41255 95.4579C4.41255 96.079 3.97679 96.2666 3.26744 96.2666H2.28163V96.2759ZM8.70008 97.7872H13.6091V95.9577H10.9989V94.748H13.3691V93.0889H10.9996V92.035H13.6098V90.2048H8.69937V97.7879L8.70008 97.7872ZM16.6722 90.2042V94.3722C16.6722 95.442 16.5472 96.0472 15.5436 96.0472C15.3698 96.0469 15.1979 96.0135 15.0385 95.9491V97.7793C15.3485 97.8449 15.6686 97.8774 15.9886 97.8774C18.846 97.8774 18.9617 96.1122 18.9617 94.9926V92.035H20.6047V97.7872H22.8857V90.2042H16.6722ZM26.4631 97.7872H28.7448V92.0436H30.5464V90.2128H24.6608V92.0436H26.4631V97.7872ZM31.4786 97.7872H33.9374L34.4081 96.4801H37.1955L37.6484 97.7872H40.1072L37.2048 90.2042H34.4174L31.4786 97.7872ZM35.784 92.027L36.7162 94.813H34.8518L35.784 92.027ZM41.1102 97.7872H43.3118L43.9154 93.3912L45.3006 97.7872H46.7743L48.1587 93.3912L48.7623 97.7872H50.964L49.7745 90.2042H47.4929L46.0549 94.8216L44.5991 90.2048H42.3089L41.1102 97.7872ZM56.8409 97.992C59.8326 97.992 61.2349 96.0141 61.2349 93.9964C61.2349 91.9534 59.8326 90.0007 56.8409 90.0007C53.8492 90.0007 52.4469 91.9614 52.4469 93.9964C52.4469 96.0227 53.8492 97.992 56.8409 97.992ZM56.8409 96.1778C55.7665 96.1778 54.7993 95.442 54.7993 93.9964C54.7993 92.5334 55.7665 91.7983 56.8409 91.7983C57.8974 91.7983 58.8825 92.5341 58.8825 93.9964C58.8825 95.4507 57.8974 96.1778 56.8409 96.1778ZM67.5112 97.7872H69.8107V94.4464L72.003 97.7879H74.8261L71.8523 93.9148L74.5861 90.2055H71.9766L69.8192 93.4986V90.2042H67.5197V93.4972L65.336 90.2042H62.7264L65.4781 93.9135L62.4693 97.7866H65.3095L67.529 94.4451L67.5112 97.7872ZM82.4604 95.271C82.0432 95.6714 81.3681 96.1129 80.5252 96.1129C79.2115 96.1129 78.43 95.2054 78.43 94.0613C78.43 92.8198 79.2644 91.8799 80.5252 91.8799C81.4039 91.8799 82.0518 92.3458 82.4604 92.8032V90.5886C81.7682 90.1551 80.9331 90 80.2145 90C78.0043 90 76.0598 91.4464 76.0598 93.9957C76.0598 96.4138 77.8264 97.9914 80.2502 97.9914C80.9603 97.9914 81.741 97.8933 82.469 97.4352L82.4604 95.271ZM84.5377 97.7872H89.4646V95.9577H86.8365V94.748H89.2067V93.0889H86.8365V92.035H89.4646V90.2048H84.5377V97.7872ZM91.6127 97.7872H93.9122V95.271H95.0751C97.3918 95.271 98.0661 93.7915 98.0661 92.7376C98.0661 91.6837 97.4096 90.2048 95.0751 90.2048H91.6127V97.7872ZM93.9122 91.8633H94.5686C95.5545 91.8633 95.6959 92.3697 95.6959 92.7383C95.6959 93.073 95.5895 93.6119 94.5686 93.6119H93.9122V91.8633ZM100.055 90.2128V97.7958H104.245C106.145 97.7958 106.925 96.7419 106.925 95.6793C106.925 94.29 105.736 93.8651 105.195 93.7504V93.718C105.87 93.5138 106.473 92.9424 106.473 92.141C106.473 91.5531 106.251 90.2128 104.014 90.2128H100.055ZM102.354 93.2036V91.7247H103.304C104.085 91.7247 104.36 92.092 104.36 92.4844C104.36 92.7707 104.2 93.2036 103.304 93.2036H102.354ZM102.354 96.2759V94.6983H103.393C103.774 94.6983 104.617 94.6983 104.617 95.4672C104.617 96.268 103.748 96.2759 103.393 96.2759H102.354ZM108.924 90.2128V97.7958H111.152L114.338 93.244V97.7958H116.549V90.2128H114.303L111.116 94.748V90.2128H108.924ZM124.991 95.279C124.556 95.6793 123.899 96.1208 123.056 96.1208C121.742 96.1208 120.943 95.2134 120.943 94.0699C120.943 92.8277 121.768 91.8878 123.056 91.8878C123.926 91.8878 124.565 92.3538 124.991 92.8112V90.5972C124.299 90.1637 123.464 90.0086 122.745 90.0086C120.517 90.0086 118.59 91.455 118.59 94.0043C118.59 96.4231 120.339 98 122.781 98C123.491 98 124.254 97.9019 125 97.4445L124.991 95.279Z" fill="white"/>
<path d="M63 40.0008C63 62.055 62.7837 80 62.5 80C62.2174 80 62 62.0763 62 40.0008C62 17.927 62.2174 0 62.5 0C62.7837 0 63 17.9466 63 40.0008Z" fill="white"/>
<path d="M29.1865 36.527C38.9842 -1.11133 105.735 -1.19194 97.8266 36.4052V36.4463L105.264 36.4052H105.304L104.626 39.2035C108.98 36.2029 120.666 31.1738 125 30.241C122.042 29.8133 111.836 24.1163 108.918 21.1156L108.241 23.9123H105.282C102.327 12.1729 90.6816 4 74.8661 4C53.9171 4 33.378 18.6217 29.1882 36.5286L29.1865 36.527ZM95.8135 45.4533H95.7738C85.9761 83.1096 19.2037 83.1919 27.1321 45.5339H19.6549L20.3325 42.775C15.9808 45.7774 4.29393 50.7669 0 51.6981C2.95848 52.1258 13.1231 57.8228 16.0403 60.8235L16.7179 58.086L19.6764 58.0449C22.6349 69.7679 34.2804 78.0213 50.0942 78C71.0449 77.9391 91.584 63.3191 95.8135 45.4533Z" fill="#5CB7B1"/>
<path d="M62.4808 18C47.3463 18 35 27.8701 35 39.9576C35 52.1078 47.3463 62 62.4808 62C77.6537 62 90 52.0874 90 39.9576C90 27.8701 77.6537 18 62.4808 18ZM61.0466 56.8139C47.9232 56.8139 37.2898 48.3026 37.2898 37.7827C37.2898 27.3493 47.9232 18.8364 61.0466 18.8364C74.1285 18.8364 84.8019 27.3476 84.8019 37.7827C84.8019 48.2822 74.1301 56.8139 61.0466 56.8139Z" fill="white"/>
<path d="M62.4808 30.0055C47.3463 30.0055 35 34.2647 35 39.5027C35 44.7408 47.3463 49 62.4808 49C77.6537 49 90 44.7408 90 39.5027C90 34.2647 77.6537 30.0055 62.4808 30.0055ZM61.0466 46.7596C47.9232 46.7596 37.2898 43.0692 37.2898 38.5454C37.2898 34.02 47.9232 30.3312 61.0466 30.3312C74.1285 30.3312 84.8019 34.02 84.8019 38.5454C84.8019 43.0692 74.1301 46.7596 61.0466 46.7596ZM62.5208 18C56.4686 18 51.5894 19.3459 51.5894 21.0985C51.5894 22.8098 56.4879 24.1954 62.5208 24.1954C68.6147 24.1954 73.4939 22.8098 73.4939 21.0985C73.4939 19.3657 68.6147 18 62.5208 18ZM61.944 23.4827C56.7074 23.4827 52.4659 22.2592 52.4659 20.7711C52.4659 19.2632 56.6866 18.0612 61.944 18.0612C67.1405 18.0612 71.4429 19.2434 71.4429 20.7728C71.4429 22.2609 67.1405 23.4827 61.944 23.4827Z" fill="white"/>
<path d="M62.4797 18C52.8271 18 45 27.8701 45 39.9576C45 52.1078 52.8271 62 62.4797 62C72.1713 62 80 52.0874 80 39.9576C80 27.8701 72.1713 18 62.4797 18ZM61.5669 56.8139C53.1959 56.8139 46.4379 48.3026 46.4379 37.7827C46.4379 27.3493 53.2163 18.8364 61.5669 18.8364C69.8598 18.8364 76.6772 27.3476 76.6772 37.7827C76.6772 48.2822 69.8613 56.8139 61.5669 56.8139Z" fill="white"/>
<path d="M62.9577 41C40.9482 41 23 40.568 23 40C23 39.432 40.9482 39 62.9577 39C85.0087 39 103 39.432 103 40C103 40.568 85.0087 41 62.9577 41Z" fill="white"/>
</svg>
