<svg width="154" height="30" viewBox="0 0 154 30" fill="none" xmlns="http://www.w3.org/2000/svg">
    <path d="M40.7595 24.649H43.9282C44.4588 24.649 46.8386 24.6643 46.8386 22.4682C46.8386 20.362 44.4905 20.3774 43.9282 20.3774H42.8346V19.3365H46.2356V17.6449H40.7679L40.7595 24.649ZM42.8262 23.2531V21.7653H43.7192C44.3785 21.7653 44.7564 21.9545 44.7564 22.4976C44.7564 23.0712 44.3617 23.2445 43.7192 23.2445H42.8262V23.2525V23.2531ZM48.64 24.649H53.0866V22.9592H50.7223V21.8418H52.8692V20.3094H50.7229V19.3359H53.0873V17.6455H48.6394V24.6496L48.64 24.649ZM55.8612 17.6449V21.4947C55.8612 22.4829 55.748 23.0418 54.8389 23.0418C54.6814 23.0415 54.5257 23.0107 54.3814 22.9512V24.6416C54.6622 24.7022 54.9521 24.7322 55.242 24.7322C57.8302 24.7322 57.9351 23.1018 57.9351 22.0678V19.3359H59.4233V24.649H61.4893V17.6449H55.8606H55.8612ZM64.7298 24.649H66.7965V19.3439H68.4284V17.6529H63.0973V19.3439H64.7298V24.649ZM69.2728 24.649H71.5L71.9264 23.4416H74.4512L74.8615 24.649H77.0886L74.4596 17.6449H71.9348L69.2728 24.649ZM73.1726 19.3286L74.0171 21.9018H72.3282L73.1726 19.3286ZM77.9971 24.649H79.9913L80.5381 20.5886L81.7928 24.649H83.1276L84.3816 20.5886L84.9284 24.649H86.9226L85.8453 17.6449H83.7786L82.476 21.9098L81.1573 17.6455H79.0829L77.9971 24.6496V24.649ZM92.246 24.8382C94.9559 24.8382 96.226 23.0112 96.226 21.1476C96.226 19.2606 94.9559 17.4569 92.246 17.4569C89.5361 17.4569 88.2659 19.268 88.2659 21.1476C88.2659 23.0192 89.5361 24.8382 92.246 24.8382ZM92.246 23.1625C91.2728 23.1625 90.3967 22.4829 90.3967 21.1476C90.3967 19.7963 91.2728 19.1174 92.246 19.1174C93.203 19.1174 94.0953 19.7969 94.0953 21.1476C94.0953 22.4908 93.203 23.1618 92.246 23.1618V23.1625ZM101.911 24.649H103.994V21.5633L105.98 24.6496H108.537L105.843 21.0722L108.32 17.6461H105.956L104.002 20.6878V17.6449H101.919V20.6865L99.9408 17.6449H97.5771L100.07 21.071L97.3442 24.6484H99.9169L101.927 21.562L101.911 24.6484V24.649ZM115.452 22.3249C115.074 22.6947 114.463 23.1025 113.699 23.1025C112.509 23.1025 111.801 22.2643 111.801 21.2076C111.801 20.0608 112.557 19.1927 113.699 19.1927C114.495 19.1927 115.082 19.6231 115.452 20.0455V18C114.825 17.5996 114.069 17.4563 113.418 17.4563C111.416 17.4563 109.654 18.7922 109.654 21.1469C109.654 23.3804 111.255 24.8376 113.45 24.8376C114.093 24.8376 114.801 24.7469 115.46 24.3239L115.452 22.3243V22.3249ZM117.334 24.649H121.797V22.9592H119.416V21.8418H121.563V20.3094H119.416V19.3359H121.797V17.6455H117.334V24.6496V24.649ZM123.742 24.649H125.825V22.3249H126.879C128.977 22.3249 129.588 20.9584 129.588 19.9849C129.588 19.0114 128.993 17.6455 126.879 17.6455H123.742V24.6496V24.649ZM125.825 19.1774H126.42C127.313 19.1774 127.441 19.6451 127.441 19.9855C127.441 20.2947 127.344 20.7925 126.42 20.7925H125.825V19.1774ZM131.389 17.6529V24.6569H135.185C136.905 24.6569 137.613 23.6835 137.613 22.702C137.613 21.4188 136.535 21.0263 136.045 20.9204V20.8904C136.656 20.7018 137.203 20.1741 137.203 19.4339C137.203 18.8908 137.002 17.6529 134.975 17.6529H131.389ZM133.472 20.4153V19.0494H134.332C135.04 19.0494 135.289 19.3886 135.289 19.751C135.289 20.0155 135.144 20.4153 134.332 20.4153H133.472ZM133.472 23.2531V21.7959H134.413C134.758 21.7959 135.522 21.7959 135.522 22.5061C135.522 23.2457 134.734 23.2531 134.413 23.2531H133.472ZM139.422 17.6529V24.6569H141.441L144.327 20.4527V24.6569H146.329V17.6529H144.295L141.408 21.8418V17.6529H139.422ZM153.976 22.3322C153.582 22.702 152.987 23.1098 152.223 23.1098C151.033 23.1098 150.31 22.2716 150.31 21.2155C150.31 20.0682 151.057 19.2 152.223 19.2C153.011 19.2 153.59 19.6304 153.976 20.0529V18.008C153.349 17.6076 152.593 17.4643 151.942 17.4643C149.924 17.4643 148.178 18.8002 148.178 21.1549C148.178 23.389 149.762 24.8455 151.974 24.8455C152.617 24.8455 153.309 24.7549 153.984 24.3325L153.976 22.3322Z" fill="#58E3F5"/>
    <path d="M24.629 14.7851H153.324C153.686 14.7851 153.984 14.8757 153.984 14.9737C153.984 15.1096 153.686 15.1929 153.324 15.1929H24.6297C24.2673 15.1929 23.9858 15.1023 23.9858 14.9737C23.9943 14.8684 24.2757 14.7851 24.629 14.7851Z" fill="white"/>
    <path d="M24.7739 15.0043C24.7739 23.2684 24.6452 29.9927 24.4763 29.9927C24.3081 29.9927 24.1786 23.2763 24.1786 15.0043C24.1786 6.73287 24.3081 0.0153198 24.4763 0.0153198C24.6452 0.0153198 24.7739 6.74022 24.7739 15.0043Z" fill="white"/>
    <path d="M11.4264 13.469C15.2622 -0.538596 41.3949 -0.568597 38.2988 13.4236V13.439L41.2105 13.4236H41.2261L40.9608 14.4651C42.6651 13.3483 47.2405 11.4767 48.9371 11.1296C47.7788 10.9704 43.7832 8.85018 42.6412 7.73344L42.3759 8.77426H41.2176C40.0607 4.40528 35.5015 1.36365 29.3098 1.36365C21.1084 1.36365 13.0674 6.80528 11.4271 13.4696L11.4264 13.469ZM37.5106 16.791H37.4951C33.6594 30.8053 7.51818 30.8359 10.6221 16.821H7.69482L7.96012 15.7943C6.25641 16.9116 1.68106 18.7685 0 19.1151C1.15824 19.2743 5.13765 21.3945 6.27971 22.5112L6.545 21.4924L7.70323 21.4771C8.86147 25.84 13.4206 28.9116 19.6117 28.9036C27.8138 28.881 35.8548 23.44 37.5106 16.791Z" fill="#58E3F5"/>
    <path d="M24.4608 7.04144C18.3493 7.04144 13.3637 10.6035 13.3637 14.9657C13.3637 19.3506 18.3493 22.9206 24.4608 22.9206C30.5878 22.9206 35.5734 19.3433 35.5734 14.9657C35.5734 10.6035 30.5878 7.04144 24.4608 7.04144ZM23.8816 21.049C18.5822 21.049 14.2884 17.9774 14.2884 14.1808C14.2884 10.4155 18.5822 7.34328 23.8816 7.34328C29.1642 7.34328 33.4743 10.4149 33.4743 14.1808C33.4743 17.97 29.1649 21.049 23.8816 21.049Z" fill="white"/>
    <path d="M24.4608 11.487C18.3493 11.487 13.3637 13.0641 13.3637 15.0037C13.3637 16.9433 18.3493 18.5204 24.4608 18.5204C30.5878 18.5204 35.5734 16.9433 35.5734 15.0037C35.5734 13.0641 30.5878 11.487 24.4608 11.487ZM23.8816 17.6908C18.5822 17.6908 14.2884 16.3243 14.2884 14.6492C14.2884 12.9735 18.5822 11.6076 23.8816 11.6076C29.1642 11.6076 33.4743 12.9735 33.4743 14.6492C33.4743 16.3243 29.1649 17.6908 23.8816 17.6908ZM24.4769 7.04144C22.033 7.04144 20.0627 7.53981 20.0627 8.18879C20.0627 8.82246 22.0408 9.33552 24.4769 9.33552C26.9377 9.33552 28.908 8.82246 28.908 8.18879C28.908 7.54716 26.9377 7.04144 24.4769 7.04144ZM24.244 9.07165C22.1294 9.07165 20.4166 8.61859 20.4166 8.06757C20.4166 7.5092 22.121 7.0641 24.244 7.0641C26.3424 7.0641 28.0798 7.50185 28.0798 8.06818C28.0798 8.6192 26.3424 9.07165 24.244 9.07165Z" fill="white"/>
    <path d="M24.4763 7.04144C20.48 7.04144 17.2396 10.6035 17.2396 14.9657C17.2396 19.3506 20.48 22.9206 24.4763 22.9206C28.4887 22.9206 31.7298 19.3433 31.7298 14.9657C31.7298 10.6035 28.4887 7.04144 24.4763 7.04144ZM24.0984 21.049C20.6327 21.049 17.8349 17.9774 17.8349 14.1808C17.8349 10.4155 20.6412 7.34328 24.0984 7.34328C27.5317 7.34328 30.3542 10.4149 30.3542 14.1808C30.3542 17.97 27.5323 21.049 24.0984 21.049Z" fill="white"/>
    <path d="M24.4608 15.2835C15.873 15.2835 8.86987 15.1629 8.86987 15.0043C8.86987 14.8457 15.873 14.7251 24.4608 14.7251C33.0647 14.7251 40.0846 14.8457 40.0846 15.0043C40.0846 15.1629 33.0647 15.2835 24.4608 15.2835Z" fill="white"/>
</svg>
